<svg width="1053" height="322" viewBox="0 0 1053 322" fill="none" xmlns="http://www.w3.org/2000/svg">
<path d="M554.216 211.354V176.813H623.57C625.44 176.813 627.122 176.396 628.611 175.563C630.106 174.719 631.325 173.542 632.257 172.042C633.2 170.547 633.674 168.953 633.674 167.271C633.674 165.401 633.2 163.719 632.257 162.229C631.325 160.734 630.106 159.557 628.611 158.708C627.122 157.865 625.44 157.438 623.57 157.438H598.299C588.934 157.438 580.46 155.896 572.882 152.813C565.309 149.734 559.325 144.87 554.924 138.229C550.518 131.578 548.32 122.917 548.32 112.25C548.32 104.016 550.33 96.5313 554.361 89.7917C558.387 83.0469 563.908 77.6146 570.924 73.5C577.934 69.3802 585.658 67.3125 594.091 67.3125H663.445V102.125H600.82C598.205 102.125 596.012 102.974 594.236 104.667C592.455 106.349 591.57 108.406 591.57 110.833C591.57 113.458 592.455 115.661 594.236 117.438C596.012 119.219 598.205 120.104 600.82 120.104H625.528C636.012 120.104 645.049 121.656 652.632 124.75C660.21 127.833 666.111 132.745 670.32 139.479C674.523 146.219 676.632 154.922 676.632 165.583C676.632 174.016 674.523 181.698 670.32 188.625C666.111 195.542 660.492 201.068 653.466 205.188C646.45 209.302 638.539 211.354 629.736 211.354H554.216Z" fill="white"/>
<path d="M702.756 211.354V67.3125H746.548V211.354H702.756ZM724.298 51.375C717.366 51.375 711.371 48.849 706.319 43.7917C701.261 38.7396 698.735 32.75 698.735 25.8333C698.735 18.9062 701.261 12.8698 706.319 7.72917C711.371 2.57813 717.366 0 724.298 0C731.225 0 737.215 2.57813 742.256 7.72917C747.308 12.8698 749.84 18.9062 749.84 25.8333C749.84 32.75 747.308 38.7396 742.256 43.7917C737.215 48.849 731.225 51.375 724.298 51.375Z" fill="white"/>
<path d="M97.0377 64.5876C109.173 64.5876 119.96 66.5094 129.392 70.3376C138.835 74.1605 146.871 79.5771 153.496 86.5876C160.131 93.5876 165.225 101.806 168.767 111.233C172.319 120.666 174.1 131.082 174.1 142.483C174.1 156.681 171.152 169.244 165.267 180.171C159.376 191.103 151.293 199.655 141.017 205.817C130.751 211.968 118.798 215.046 105.163 215.046C99.371 215.046 93.9022 214.291 88.7668 212.796C83.6262 211.312 78.9491 209.171 74.746 206.379C70.5481 203.577 67.0481 200.119 64.246 196.004H63.4127V272.504H19.9752V142.483C19.9752 126.614 23.147 112.879 29.496 101.296C35.8554 89.7178 44.8293 80.7021 56.4127 74.2542C67.9908 67.8115 81.5377 64.5876 97.0377 64.5876ZM97.0377 102.129C90.3137 102.129 84.47 103.77 79.5168 107.046C74.5689 110.312 70.7825 114.791 68.1627 120.483C65.5481 126.181 64.246 132.577 64.246 139.671C64.246 146.77 65.5481 153.124 68.1627 158.733C70.7825 164.332 74.5689 168.77 79.5168 172.046C84.47 175.312 90.3137 176.942 97.0377 176.942C103.756 176.942 109.548 175.312 114.413 172.046C119.272 168.77 123.058 164.332 125.767 158.733C128.47 153.124 129.829 146.77 129.829 139.671C129.829 132.577 128.47 126.181 125.767 120.483C123.058 114.791 119.272 110.312 114.413 107.046C109.548 103.77 103.756 102.129 97.0377 102.129Z" fill="white"/>
<path d="M199.864 211.692V7.15005H243.301V77.4626C248.895 72.9938 255.056 69.7282 261.78 67.6709C268.515 65.6188 275.244 64.5876 281.968 64.5876C295.035 64.5876 306.098 67.3948 315.155 73.0042C324.223 78.6032 331.041 86.2646 335.614 95.9834C340.192 105.692 342.489 116.707 342.489 129.025V211.692H299.051V130.713C299.051 125.301 297.785 120.494 295.259 116.296C292.744 112.093 289.379 108.728 285.176 106.213C280.978 103.687 276.358 102.421 271.322 102.421C266.28 102.421 261.603 103.64 257.301 106.067C253.009 108.483 249.598 111.749 247.072 115.858C244.556 119.973 243.301 124.645 243.301 129.879V211.692H199.864Z" fill="white"/>
<mask id="mask0_6_297" style="mask-type:luminance" maskUnits="userSpaceOnUse" x="880" y="174" width="18" height="39">
<path d="M880 174.755H897.974V212.833H880V174.755Z" fill="white"/>
</mask>
<g mask="url(#mask0_6_297)">
<path d="M907.234 212.89H880.755V175.89H907.234V212.89Z" fill="#999999"/>
</g>
<mask id="mask1_6_297" style="mask-type:luminance" maskUnits="userSpaceOnUse" x="772" y="140" width="110" height="73">
<path d="M772.068 140.708H881.333V212.833H772.068V140.708Z" fill="white"/>
</mask>
<g mask="url(#mask1_6_297)">
<path d="M880.755 212.89H843.708C803.99 212.89 771.688 180.578 771.688 140.854H808.646C808.646 160.197 824.38 175.89 843.708 175.89H880.755V212.89Z" fill="#2883E5"/>
</g>
<mask id="mask2_6_297" style="mask-type:luminance" maskUnits="userSpaceOnUse" x="880" y="68" width="18" height="39">
<path d="M880 68.8327H897.974V106.65H880V68.8327Z" fill="white"/>
</mask>
<g mask="url(#mask2_6_297)">
<path d="M907.234 105.838H880.755V68.8327H907.234V105.838Z" fill="#999999"/>
</g>
<mask id="mask3_6_297" style="mask-type:luminance" maskUnits="userSpaceOnUse" x="772" y="68" width="110" height="74">
<path d="M772.068 68.8327H881.333V141.317H772.068V68.8327Z" fill="white"/>
</mask>
<g mask="url(#mask3_6_297)">
<path d="M808.646 140.854H771.688C771.688 101.135 803.99 68.8327 843.708 68.8327H880.755V105.838H843.708C824.38 105.838 808.646 121.531 808.646 140.854Z" fill="#EF4A4A"/>
</g>
<mask id="mask4_6_297" style="mask-type:luminance" maskUnits="userSpaceOnUse" x="358" y="59" width="132" height="263">
<path d="M358.167 59.7025H489.167V321.317H358.167V59.7025Z" fill="white"/>
</mask>
<g mask="url(#mask4_6_297)">
<path d="M489.464 132.072H427.953L487.099 12.6036H419.672L358.167 167.557H414.943L372.359 320.145L489.464 132.072Z" fill="#FFD52C"/>
</g>
<mask id="mask5_6_297" style="mask-type:luminance" maskUnits="userSpaceOnUse" x="400" y="59" width="151" height="223">
<path d="M400 59.9838H550.667V281.317H400V59.9838Z" fill="white"/>
</mask>
<g mask="url(#mask5_6_297)">
<mask id="mask6_6_297" style="mask-type:luminance" maskUnits="userSpaceOnUse" x="393" y="61" width="158" height="225">
<path d="M536.948 61.2077L550.193 70.0202L407.057 285.166L393.818 276.354L536.948 61.2077Z" fill="white"/>
</mask>
<g mask="url(#mask6_6_297)">
<mask id="mask7_6_297" style="mask-type:luminance" maskUnits="userSpaceOnUse" x="400" y="61" width="151" height="220">
<path d="M400.469 280.718L550.193 70.0202L536.948 61.2077L400.469 280.718Z" fill="white"/>
</mask>
<g mask="url(#mask7_6_297)">
<path d="M536.948 61.2077L550.193 70.0202L407.094 285.114L393.849 276.301L536.948 61.2077Z" fill="white"/>
</g>
</g>
</g>
<mask id="mask8_6_297" style="mask-type:luminance" maskUnits="userSpaceOnUse" x="533" y="39" width="27" height="32">
<path d="M533.333 39.9838H560V70.6504H533.333V39.9838Z" fill="white"/>
</mask>
<g mask="url(#mask8_6_297)">
<mask id="mask9_6_297" style="mask-type:luminance" maskUnits="userSpaceOnUse" x="533" y="33" width="39" height="38">
<path d="M557.464 70.5411L533.365 54.765L547.385 33.3431L571.484 49.1192L557.464 70.5411Z" fill="white"/>
</mask>
<g mask="url(#mask9_6_297)">
<mask id="mask10_6_297" style="mask-type:luminance" maskUnits="userSpaceOnUse" x="533" y="41" width="27" height="30">
<path d="M559.474 41.2598L533.438 54.8171L557.464 70.5411L559.474 41.2598Z" fill="white"/>
</mask>
<g mask="url(#mask10_6_297)">
<path d="M557.464 70.5411L533.448 54.8223L547.469 33.4005L571.484 49.1192L557.464 70.5411Z" fill="white"/>
</g>
</g>
</g>
<mask id="mask11_6_297" style="mask-type:luminance" maskUnits="userSpaceOnUse" x="0" y="29" width="86" height="51">
<path d="M0 29.3171H85.3333V79.9838H0V29.3171Z" fill="white"/>
</mask>
<g mask="url(#mask11_6_297)">
<mask id="mask12_6_297" style="mask-type:luminance" maskUnits="userSpaceOnUse" x="-13" y="13" width="111" height="91">
<path d="M-12.0104 64.0098L75.6041 13.765L97.9896 52.8015L10.375 103.046L-12.0104 64.0098Z" fill="white"/>
</mask>
<g mask="url(#mask12_6_297)">
<mask id="mask13_6_297" style="mask-type:luminance" maskUnits="userSpaceOnUse" x="-12" y="13" width="111" height="90">
<path d="M75.724 13.6973L-11.8906 63.9421L10.4948 102.979L98.1094 52.7338L75.724 13.6973Z" fill="white"/>
</mask>
<g mask="url(#mask13_6_297)">
<path d="M2.73436 79.0202C2.16144 79.1088 1.64581 78.8796 1.36977 78.3952C1.19269 78.0931 1.14581 77.7546 1.22915 77.4317C1.28123 77.239 1.36977 77.0619 1.5104 76.8848L2.56769 75.5931L27.1302 45.3588L27.6198 44.7546L28.1041 44.1556L32.1875 39.14C32.6458 38.5671 33.2083 38.0879 33.8333 37.7286C34.4479 37.3744 35.1406 37.1244 35.8594 37.015L42.9271 35.9161L43.6927 35.7963L44.4479 35.6817L82.375 29.7442L83.7916 29.5254C84.0989 29.4786 84.3854 29.5202 84.625 29.64C84.8541 29.7494 85.0312 29.9213 85.1614 30.1504C85.4375 30.6348 85.375 31.1973 85.0156 31.6608L72.7135 46.8119L72.3958 46.7858C62.1146 46.1921 51.9687 48.5775 43.0885 53.6713C43.0729 53.6765 43.0729 53.6765 43.0625 53.6817C34.1823 58.7754 26.9844 66.3327 22.2604 75.5411L22.0573 75.9421L22.0937 76.0046L2.73436 79.0202Z" fill="white"/>
</g>
</g>
</g>
<mask id="mask14_6_297" style="mask-type:luminance" maskUnits="userSpaceOnUse" x="8" y="85" width="14" height="17">
<path d="M8 85.3171H21.3333V101.317H8V85.3171Z" fill="white"/>
</mask>
<g mask="url(#mask14_6_297)">
<mask id="mask15_6_297" style="mask-type:luminance" maskUnits="userSpaceOnUse" x="-13" y="13" width="111" height="91">
<path d="M-12.0104 64.0098L75.6041 13.765L97.9896 52.8015L10.375 103.046L-12.0104 64.0098Z" fill="white"/>
</mask>
<g mask="url(#mask15_6_297)">
<mask id="mask16_6_297" style="mask-type:luminance" maskUnits="userSpaceOnUse" x="-12" y="13" width="111" height="90">
<path d="M75.724 13.6973L-11.8906 63.9421L10.4948 102.979L98.1094 52.7338L75.724 13.6973Z" fill="white"/>
</mask>
<g mask="url(#mask16_6_297)">
<path d="M8.36457 98.338C10.7812 95.1713 10.9792 91.1609 9.98437 88.0775C10.8229 88.14 11.6927 87.9786 12.5052 87.5775C12.6042 87.5359 12.7031 87.4786 12.7864 87.4317C13.6094 86.963 14.2604 86.2807 14.6875 85.463C18.2344 87.9786 20.6094 92.5984 20.5521 95.6609C20.5469 96.3744 20.2552 97.0671 19.776 97.6296C19.1823 98.3067 18.4062 98.8796 17.5417 99.3275C17.6094 99.0515 17.6406 98.7755 17.6771 98.4994C17.7344 97.8223 17.724 97.1557 17.6458 96.4942C17.4844 95.1765 17.0781 93.9057 16.4375 92.765C16.349 92.6036 16.1562 92.5567 16 92.6452C15.8542 92.7286 15.7969 92.9057 15.8698 93.0567C16.375 94.1609 16.6667 95.3744 16.7292 96.5723C16.75 97.1713 16.7187 97.7807 16.6146 98.3536C16.5104 98.9265 16.3333 99.4942 16.0573 99.9265L16.0521 99.9421L16.0469 99.963C14.8333 100.369 13.5521 100.593 12.3437 100.578C12.5469 100.27 12.7292 99.9421 12.8698 99.6036C13.1562 98.9577 13.3437 98.3067 13.4687 97.6244C13.7083 96.2859 13.651 94.89 13.2864 93.5932C13.2396 93.4265 13.0677 93.3171 12.8906 93.3692C12.7239 93.4161 12.6302 93.5827 12.6562 93.7442C12.8958 94.9734 12.8489 96.2338 12.5521 97.4265C12.401 98.0255 12.1875 98.6036 11.901 99.114C11.6302 99.6244 11.2865 100.078 10.901 100.442C9.93749 100.275 9.08853 99.9421 8.46353 99.4057C8.14062 99.1557 8.09374 98.6869 8.36457 98.338Z" fill="white"/>
</g>
</g>
</g>
<mask id="mask17_6_297" style="mask-type:luminance" maskUnits="userSpaceOnUse" x="5" y="78" width="10" height="10">
<path d="M5.33331 78.6505H14.6666V87.9838H5.33331V78.6505Z" fill="white"/>
</mask>
<g mask="url(#mask17_6_297)">
<mask id="mask18_6_297" style="mask-type:luminance" maskUnits="userSpaceOnUse" x="-13" y="13" width="111" height="91">
<path d="M-12.0104 64.0098L75.6041 13.765L97.9896 52.8015L10.375 103.046L-12.0104 64.0098Z" fill="white"/>
</mask>
<g mask="url(#mask18_6_297)">
<mask id="mask19_6_297" style="mask-type:luminance" maskUnits="userSpaceOnUse" x="-12" y="13" width="111" height="90">
<path d="M75.724 13.6973L-11.8906 63.9421L10.4948 102.979L98.1094 52.7338L75.724 13.6973Z" fill="white"/>
</mask>
<g mask="url(#mask19_6_297)">
<path d="M6.65107 81.8744C6.95315 80.9786 7.57294 80.239 8.38023 79.7754C8.45315 79.7338 8.52607 79.6921 8.60419 79.6661C8.66669 79.6296 8.7344 79.6088 8.79169 79.5723C9.38544 79.3119 10.0313 79.2129 10.6667 79.2858C10.9636 79.3067 11.2604 79.3744 11.5625 79.4786C12.5417 79.8119 13.3229 80.5046 13.7865 81.4265C14.2344 82.3536 14.3073 83.4004 13.974 84.3796C13.9063 84.5463 13.8386 84.7129 13.7709 84.864C13.4011 85.6192 12.7865 86.2286 12.0261 86.6036C11.25 86.9838 10.3802 87.0931 9.54169 86.9213C9.38023 86.8848 9.22919 86.8431 9.06773 86.7911C8.08857 86.4525 7.30732 85.765 6.84378 84.8431C6.38544 83.9056 6.31253 82.8536 6.65107 81.8744Z" fill="white"/>
</g>
</g>
</g>
<mask id="mask20_6_297" style="mask-type:luminance" maskUnits="userSpaceOnUse" x="22" y="47" width="60" height="44">
<path d="M22.6666 47.9838H81.3333V90.6504H22.6666V47.9838Z" fill="white"/>
</mask>
<g mask="url(#mask20_6_297)">
<mask id="mask21_6_297" style="mask-type:luminance" maskUnits="userSpaceOnUse" x="-13" y="13" width="111" height="91">
<path d="M-12.0104 64.0098L75.6041 13.765L97.9896 52.8015L10.375 103.046L-12.0104 64.0098Z" fill="white"/>
</mask>
<g mask="url(#mask21_6_297)">
<mask id="mask22_6_297" style="mask-type:luminance" maskUnits="userSpaceOnUse" x="-12" y="13" width="111" height="90">
<path d="M75.724 13.6973L-11.8906 63.9421L10.4948 102.979L98.1094 52.7338L75.724 13.6973Z" fill="white"/>
</mask>
<g mask="url(#mask22_6_297)">
<path d="M71.4114 48.3952C71.5625 48.4057 71.7031 48.4004 71.8437 48.4213L72.0989 48.864L72.5416 49.64L80.026 62.6973C71.4896 63.6296 63.5625 65.9161 56.3906 69.515C55.7187 69.8536 55.0521 70.2025 54.3958 70.5619C54.026 70.7598 53.6614 70.9682 53.3021 71.1765C53.2291 71.2182 53.1666 71.2494 53.0937 71.2911C52.6146 71.5671 52.1354 71.8588 51.6614 72.1452C51.0364 72.5359 50.4114 72.9265 49.7969 73.3432C43.25 77.6921 37.3177 83.338 32.1041 90.1921L24.6927 77.2702L24.25 76.4942L23.9114 75.9057C23.9531 75.8327 23.9896 75.765 24.0208 75.6973C33.3125 58.2129 51.7604 47.6036 71.4114 48.3952Z" fill="white"/>
</g>
</g>
</g>
<path d="M930.28 212.282V177.782H999.572C1001.44 177.782 1003.12 177.365 1004.61 176.532C1006.11 175.688 1007.33 174.511 1008.26 173.011C1009.2 171.517 1009.68 169.923 1009.68 168.24C1009.68 166.381 1009.2 164.699 1008.26 163.199C1007.33 161.704 1006.11 160.532 1004.61 159.699C1003.12 158.855 1001.44 158.428 999.572 158.428H974.322C964.973 158.428 956.504 156.886 948.926 153.803C941.353 150.725 935.374 145.86 930.989 139.22C926.598 132.584 924.405 123.928 924.405 113.261C924.405 105.043 926.41 97.5634 930.426 90.8238C934.452 84.0894 939.968 78.6676 946.968 74.553C953.978 70.4436 961.697 68.3863 970.114 68.3863H1039.41V103.178H976.843C974.228 103.178 972.035 104.022 970.259 105.699C968.478 107.381 967.593 109.438 967.593 111.865C967.593 114.48 968.478 116.673 970.259 118.449C972.035 120.23 974.228 121.115 976.843 121.115H1001.53C1012 121.115 1021.02 122.668 1028.59 125.761C1036.17 128.845 1042.07 133.756 1046.28 140.49C1050.48 147.214 1052.59 155.902 1052.59 166.553C1052.59 174.97 1050.48 182.647 1046.28 189.574C1042.07 196.49 1036.46 202.006 1029.45 206.115C1022.43 210.23 1014.53 212.282 1005.74 212.282H930.28Z" fill="white"/>
<path d="M886.521 197.991V196.971H890.208C890.484 196.971 890.719 196.903 890.917 196.762C891.12 196.627 891.281 196.45 891.396 196.241C891.516 196.038 891.583 195.814 891.583 195.575C891.583 195.34 891.526 195.116 891.417 194.908C891.302 194.705 891.141 194.533 890.937 194.408C890.74 194.288 890.505 194.221 890.229 194.221H888.625C888.151 194.221 887.724 194.127 887.354 193.929C886.99 193.726 886.703 193.444 886.5 193.096C886.302 192.752 886.208 192.356 886.208 191.908C886.208 191.455 886.302 191.043 886.5 190.679C886.693 190.319 886.969 190.033 887.333 189.825C887.693 189.622 888.109 189.512 888.583 189.512H892.187V190.533H888.687C888.422 190.533 888.182 190.601 887.979 190.721C887.781 190.846 887.63 191.017 887.521 191.221C887.422 191.418 887.375 191.627 887.375 191.846C887.375 192.069 887.422 192.278 887.521 192.471C887.615 192.668 887.76 192.83 887.958 192.95C888.161 193.075 888.396 193.137 888.646 193.137H890.292C890.802 193.137 891.24 193.247 891.604 193.45C891.963 193.648 892.24 193.918 892.437 194.262C892.63 194.611 892.729 195.007 892.729 195.45C892.729 195.939 892.62 196.377 892.417 196.762C892.219 197.153 891.943 197.46 891.583 197.679C891.219 197.887 890.802 197.991 890.333 197.991H886.521Z" fill="white"/>
<path d="M891.184 90.0284C890.736 90.0284 890.34 89.919 889.996 89.7159C889.647 89.5128 889.376 89.2315 889.184 88.8826C888.986 88.5232 888.892 88.1222 888.892 87.6742V83.4451C888.892 83.2263 888.835 83.0284 888.725 82.8617C888.626 82.6847 888.486 82.544 888.309 82.4451C888.126 82.3357 887.928 82.2784 887.725 82.2784C887.517 82.2784 887.319 82.3357 887.142 82.4451C886.975 82.544 886.84 82.6847 886.746 82.8617C886.647 83.0284 886.6 83.2263 886.6 83.4451V89.8826H885.434V83.6117C885.434 83.169 885.527 82.768 885.725 82.4034C885.918 82.044 886.189 81.768 886.538 81.5701C886.881 81.3669 887.277 81.2576 887.725 81.2576C888.178 81.2576 888.585 81.3669 888.934 81.5701C889.293 81.768 889.564 82.044 889.746 82.4034C889.939 82.768 890.038 83.169 890.038 83.6117V87.8409C890.038 88.0492 890.09 88.2472 890.204 88.4242C890.314 88.6065 890.454 88.7524 890.621 88.8617C890.798 88.9607 890.986 89.0076 891.184 89.0076C891.387 89.0076 891.579 88.9607 891.746 88.8617C891.907 88.7524 892.043 88.6065 892.142 88.4242C892.251 88.2472 892.309 88.0492 892.309 87.8409V81.4034H893.475V87.6742C893.475 88.1222 893.376 88.5232 893.184 88.8826C892.986 89.2315 892.715 89.5128 892.371 89.7159C892.038 89.919 891.637 90.0284 891.184 90.0284Z" fill="white"/>
<path d="M576.095 270.975V230.642H644.095V270.975H637.407V254.142H582.782V270.975H576.095ZM582.782 247.454H637.407V237.329H582.782V247.454Z" fill="white"/>
<path d="M675.792 270.975V264.288H735.375V254.142H674.062V230.642H740.333V237.329H680.75V247.454H742.063V270.975H675.792Z" fill="white"/>
<path d="M804.988 270.975V237.329H772.03V230.642H844.634V237.329H811.676V270.975H804.988Z" fill="white"/>
<path d="M874.608 270.975V230.642H942.608V237.329H881.295V247.454H942.608V254.142H881.295V264.288H942.608V270.975H874.608Z" fill="white"/>
<path d="M972.575 270.975V230.642H1040.58V254.142H1018.8L1040.58 267.121V270.975H1033.89L1005.6 254.142H979.263V270.975H972.575ZM979.263 247.454H1033.89V237.329H979.263V247.454Z" fill="white"/>
<path d="M547.023 215.292V278.375H538.668L537.002 269.896H536.418C534.377 273.037 531.804 275.433 528.71 277.084C525.611 278.719 521.866 279.542 517.481 279.542C514.408 279.542 511.778 279.053 509.585 278.084C507.387 277.099 505.507 275.823 503.939 274.25H503.46C503.611 275.667 503.741 277.573 503.856 279.959C503.976 282.36 504.043 285.131 504.043 288.271V306.625H493.689V215.292H504.043V256.021C504.043 265.98 508.752 270.959 518.168 270.959C525.153 270.959 529.981 269 532.648 265.084C535.309 261.157 536.648 255.5 536.648 248.125V215.292H547.023Z" fill="white"/>
</svg>
